<?xml version="1.0" standalone="no"?>
<!DOCTYPE svg PUBLIC "-//W3C//DTD SVG 20010904//EN"
 "http://www.w3.org/TR/2001/REC-SVG-20010904/DTD/svg10.dtd">
<svg version="1.0" xmlns="http://www.w3.org/2000/svg"
 width="744.000000pt" height="744.000000pt" viewBox="0 0 744.000000 744.000000"
 preserveAspectRatio="xMidYMid meet">
<metadata>
Created by potrace 1.14, written by Peter Selinger 2001-2017
</metadata>
<g transform="translate(0.000000,744.000000) scale(0.100000,-0.100000)"
fill="#000000" stroke="none">
<path d="M5622 6413 c-11 -10 -45 -61 -75 -114 -71 -122 -168 -212 -478 -442
-118 -88 -417 -287 -431 -287 -14 0 -26 35 -39 112 -13 76 -12 78 11 103 34
36 38 114 11 204 -18 58 -25 71 -42 71 -37 0 -614 -113 -626 -122 -13 -10 -10
-58 8 -152 15 -75 37 -115 79 -136 l37 -19 18 -113 c9 -62 19 -138 22 -170 l6
-56 -49 -25 c-164 -82 -553 -221 -800 -285 -217 -57 -180 -73 71 -31 303 51
631 152 936 290 85 38 102 43 180 44 105 3 118 9 89 40 -27 28 -23 36 35 68
71 40 145 64 233 77 81 12 100 23 62 35 -33 11 -23 32 38 80 93 74 179 116
331 161 10 3 11 7 1 19 -7 8 -10 21 -7 28 7 20 315 267 332 267 12 0 68 -94
192 -327 38 -71 38 -72 21 -101 -10 -17 -18 -32 -18 -35 0 -3 31 -28 69 -56
62 -46 118 -108 166 -183 21 -33 15 -55 -16 -60 -40 -6 -31 -25 26 -58 101
-58 255 -220 242 -254 -3 -8 -18 -16 -34 -18 -25 -3 -18 -8 57 -51 47 -26 121
-76 165 -110 235 -185 724 -544 754 -554 18 -6 0 12 -229 224 -511 472 -949
1044 -1228 1601 -59 118 -63 139 -52 276 3 39 0 52 -15 62 -24 18 -29 18 -53
-3z m-1058 -449 c9 -8 16 -31 16 -49 0 -31 -6 -38 -55 -70 -30 -19 -55 -37
-55 -41 0 -3 14 -64 30 -136 17 -71 30 -137 30 -147 0 -12 -47 -43 -159 -104
-88 -48 -164 -87 -170 -87 -14 0 -18 21 -31 175 -6 72 -14 153 -17 181 l-5 51
-48 -5 c-39 -3 -52 0 -69 17 -24 24 -27 68 -8 96 10 12 79 35 233 75 236 62
284 69 308 44z"/>
<path d="M555 5534 c-11 -3 -49 -12 -83 -21 l-64 -16 7 -35 c19 -102 87 -178
201 -225 38 -15 112 -49 164 -75 l95 -47 0 -44 c0 -37 5 -47 29 -65 16 -12 54
-43 85 -69 31 -27 77 -59 102 -72 43 -22 46 -22 56 -6 18 29 133 74 133 52 0
-5 -25 -27 -55 -48 -30 -21 -55 -44 -55 -51 0 -7 7 -27 16 -43 8 -17 13 -33
10 -36 -9 -10 -121 48 -218 113 -138 91 -171 104 -302 116 -140 12 -195 7
-271 -27 -130 -57 -235 -226 -235 -378 0 -30 5 -49 13 -51 6 -2 35 -11 63 -20
74 -24 111 -14 191 51 79 64 131 93 172 93 31 0 64 -25 58 -44 -2 -6 -51 -45
-109 -86 -155 -111 -210 -160 -291 -268 -77 -104 -177 -269 -177 -295 0 -29
19 -28 61 3 24 17 66 37 94 46 45 13 56 21 86 67 61 95 103 128 231 181 65 26
153 70 197 97 118 73 134 65 82 -39 -16 -31 -38 -88 -50 -127 -23 -75 -40
-225 -25 -225 14 0 83 100 129 187 48 90 78 114 120 95 22 -10 26 -17 20 -35
-20 -64 -19 -67 12 -67 36 0 53 -16 53 -52 0 -19 -5 -28 -15 -28 -30 0 -75
-30 -91 -61 -13 -25 -13 -36 -4 -60 7 -15 21 -31 31 -34 11 -4 31 -24 44 -46
32 -50 66 -71 114 -73 l39 -1 6 -95 c20 -274 56 -553 112 -848 19 -101 32
-187 29 -191 -2 -5 -27 -11 -54 -14 -162 -19 -261 -133 -261 -299 0 -32 -2
-58 -4 -58 -3 0 -26 13 -53 30 -76 47 -162 65 -246 51 -100 -17 -183 -65 -213
-123 -14 -27 -14 -32 1 -54 9 -14 23 -28 31 -31 8 -3 57 13 109 36 51 22 97
41 101 41 4 0 16 -8 26 -17 18 -16 21 -16 49 1 56 33 88 37 110 15 30 -30 20
-41 -48 -55 -33 -7 -75 -20 -92 -29 -49 -25 -112 -86 -128 -122 -20 -50 -16
-122 10 -167 48 -85 76 -73 101 43 10 46 27 93 42 112 13 18 24 39 24 46 0 7
10 13 21 13 17 0 20 -4 15 -22 -35 -113 -38 -137 -33 -238 3 -69 11 -122 23
-155 22 -57 50 -69 47 -20 -2 49 17 255 28 302 6 24 16 43 21 43 5 0 32 -36
60 -80 70 -111 81 -106 53 20 -17 79 -20 256 -4 266 28 17 324 -311 445 -493
105 -157 205 -396 177 -424 -6 -6 -142 -49 -304 -95 -265 -77 -433 -133 -425
-141 2 -2 162 37 357 87 1346 341 2344 498 3379 530 550 16 1331 -25 1597 -85
115 -26 198 -36 247 -29 68 9 48 17 -134 53 -511 100 -995 138 -1635 128 -494
-8 -860 -33 -1295 -88 -432 -54 -968 -154 -1341 -249 -111 -29 -126 -27 -170
20 -103 108 -246 372 -318 585 -93 279 -235 925 -295 1350 -32 219 -57 437
-52 442 2 2 32 -1 67 -7 71 -11 89 -1 89 48 0 34 17 63 58 99 l36 32 -18 38
c-10 21 -35 61 -57 89 -40 52 -50 84 -25 84 7 0 20 -7 27 -17 18 -20 71 -43
102 -43 19 0 26 -7 31 -30 4 -21 17 -37 41 -52 20 -11 34 -26 31 -33 -2 -7 -7
-33 -11 -58 -8 -54 -8 -54 118 -87 l88 -23 80 79 c82 82 91 106 48 119 -25 8
-24 31 1 45 31 16 24 43 -26 105 -47 58 -134 222 -134 254 0 41 63 56 94 22
11 -12 37 -21 74 -25 31 -3 85 -16 119 -27 60 -20 75 -29 196 -124 78 -60 92
-59 84 3 -4 26 -11 65 -18 87 -29 103 -277 265 -504 330 -97 28 -126 49 -100
74 13 13 24 13 92 1 43 -8 126 -14 185 -14 l106 -1 75 -52 c91 -64 113 -67
123 -18 3 19 10 38 15 40 4 3 26 -6 48 -21 69 -45 93 -12 44 61 -74 111 -176
204 -275 252 -124 60 -306 80 -419 47 -96 -28 -187 -83 -272 -166 -45 -43 -85
-78 -90 -78 -8 0 -40 64 -96 198 -148 350 -408 555 -701 551 -47 -1 -94 -3
-105 -5z m858 -882 c28 -25 19 -45 -35 -77 -55 -32 -73 -59 -109 -162 -18 -54
-25 -63 -45 -63 -19 0 -26 -7 -30 -30 -5 -21 -12 -30 -26 -30 -11 0 -27 -4
-37 -10 -18 -9 -18 -11 0 -66 11 -32 19 -66 19 -76 0 -35 -34 -15 -60 34 l-25
47 41 83 c52 103 119 194 190 254 40 35 54 53 54 73 0 49 22 57 63 23z m-228
-633 c8 -36 -13 -66 -39 -56 -26 10 -29 34 -9 61 24 34 40 32 48 -5z m219
-1501 c18 -30 -5 -50 -87 -79 -43 -15 -98 -39 -123 -54 -25 -15 -48 -25 -51
-22 -10 11 28 67 73 106 46 40 120 72 158 68 10 -1 24 -10 30 -19z m43 -194
c6 -32 10 -60 8 -63 -2 -2 -43 0 -90 4 -94 8 -108 17 -85 60 9 17 32 30 74 43
34 11 66 19 71 18 6 -2 15 -29 22 -62z m-152 -140 c33 -3 80 -1 105 5 34 7 48
7 56 -2 11 -11 154 -464 154 -487 0 -23 -19 -7 -56 47 -65 96 -186 243 -282
344 -51 54 -92 100 -92 104 0 4 12 4 28 1 15 -4 54 -10 87 -12z"/>
<path d="M4333 5055 c-73 -58 -139 -105 -147 -105 -9 0 -34 27 -58 60 -23 33
-48 60 -55 60 -17 0 -123 -70 -123 -81 0 -14 12 -11 59 16 23 14 49 25 57 25
7 0 31 -26 51 -57 21 -32 46 -59 56 -61 10 -2 79 42 162 103 79 59 148 104
153 101 5 -3 62 -75 127 -160 83 -109 115 -160 111 -172 -6 -16 -28 -17 -274
-11 -319 8 -502 20 -799 52 -123 14 -242 24 -265 24 -24 -1 11 -8 77 -15 66
-8 237 -30 380 -49 143 -19 310 -39 370 -46 120 -14 589 -19 601 -7 13 14 -11
49 -163 238 -91 114 -156 186 -168 188 -13 1 -67 -36 -152 -103z"/>
<path d="M5312 5043 c-32 -13 -112 -224 -112 -295 0 -46 31 -35 63 23 l28 50
51 -3 51 -3 14 -48 c18 -60 43 -61 56 -2 11 53 -4 102 -60 195 -53 88 -61 95
-91 83z m36 -136 c2 -19 -1 -27 -12 -27 -18 0 -40 36 -31 51 13 19 40 4 43
-24z"/>
<path d="M5866 4982 c-63 -125 -84 -257 -42 -257 13 0 23 10 29 30 16 51 36
66 81 63 35 -3 43 -8 66 -48 39 -67 55 -60 54 25 0 51 -7 83 -23 117 -27 55
-97 138 -117 138 -7 0 -29 -31 -48 -68z m74 -57 c0 -18 -5 -25 -20 -25 -20 0
-28 28 -13 43 15 16 33 6 33 -18z"/>
<path d="M5037 5025 c-74 -26 -117 -87 -117 -165 0 -80 48 -139 113 -140 71 0
130 56 107 101 -12 21 -21 18 -56 -13 -30 -27 -74 -20 -93 13 -13 24 -13 31 3
72 20 54 54 72 115 62 39 -6 41 -6 41 20 0 63 -34 79 -113 50z"/>
<path d="M5600 5029 c-14 -6 -37 -22 -52 -36 -51 -48 -31 -97 54 -133 72 -30
80 -38 67 -61 -12 -24 -25 -24 -73 1 -29 16 -41 18 -52 9 -48 -40 39 -108 117
-92 43 8 89 55 89 90 0 50 -31 86 -93 107 -43 15 -57 24 -57 39 0 17 6 19 58
15 56 -3 57 -2 60 24 3 22 -2 30 -23 38 -32 12 -62 12 -95 -1z"/>
<path d="M3122 4730 c-147 -30 -303 -188 -376 -381 -73 -196 -46 -379 78 -516
l46 -51 -87 -68 c-303 -236 -495 -540 -578 -914 -26 -117 -32 -377 -10 -481
60 -297 266 -522 550 -600 237 -65 505 8 776 213 95 72 67 78 249 -60 69 -53
131 -100 138 -105 6 -5 12 -5 12 -1 0 5 -44 46 -97 91 -130 108 -185 166 -178
184 4 8 28 31 53 53 179 148 304 414 271 576 -22 106 -130 180 -264 180 -189
0 -374 -111 -420 -251 -41 -123 18 -278 171 -449 64 -71 65 -66 -36 -142 -85
-65 -246 -142 -337 -162 -147 -32 -308 -11 -436 56 -75 40 -199 161 -245 240
-79 135 -111 299 -92 475 29 276 99 480 236 685 138 207 380 419 542 476 26 9
32 16 32 40 0 32 -27 62 -55 62 -10 0 -35 -5 -56 -11 -34 -11 -42 -9 -82 14
-142 84 -180 231 -112 443 78 247 262 396 447 362 61 -11 108 -34 171 -82 61
-46 61 -30 0 23 -92 82 -213 121 -311 101z m682 -1998 c103 -59 78 -239 -57
-418 -65 -86 -184 -197 -201 -187 -31 18 -119 133 -151 198 -68 136 -65 233 9
313 83 90 172 125 295 117 45 -3 86 -12 105 -23z"/>
<path d="M5595 4591 l-50 -6 -3 -134 c-2 -92 1 -138 9 -147 9 -11 32 -14 93
-12 77 3 81 4 84 27 5 31 -12 41 -69 41 -25 0 -48 3 -52 6 -11 11 17 29 58 39
33 8 40 14 40 35 0 22 -5 25 -45 28 -53 4 -70 15 -63 42 4 16 14 20 52 20 49
0 96 29 88 53 -4 14 -69 17 -142 8z"/>
<path d="M5227 4575 c-15 -15 -15 -19 7 -200 l11 -90 57 1 c105 2 173 68 166
160 -5 60 -33 105 -82 128 -43 20 -139 21 -159 1z m154 -74 c54 -54 26 -149
-46 -154 l-30 -2 -9 77 c-5 42 -6 83 -3 92 10 26 56 19 88 -13z"/>
<path d="M4143 4279 c-77 -30 -155 -106 -198 -193 -53 -106 -68 -205 -61 -401
18 -515 163 -833 472 -1035 85 -56 179 -88 276 -95 l73 -6 -94 35 c-123 46
-189 86 -278 170 -161 151 -252 350 -300 649 -25 161 -25 478 0 562 32 104 61
143 130 176 84 40 147 40 209 0 92 -59 151 -242 128 -403 -27 -185 -148 -438
-307 -635 -19 -25 -22 -33 -10 -33 8 0 45 32 81 71 161 170 277 368 326 557
28 105 27 251 -1 334 -71 213 -262 318 -446 247z"/>
<path d="M6180 4147 c-230 -65 -324 -374 -168 -552 50 -57 105 -86 177 -92 81
-7 153 18 252 89 13 9 25 5 60 -19 111 -76 221 -113 343 -113 38 0 67 2 64 5
-3 3 -38 14 -77 25 -83 23 -179 69 -233 112 -21 16 -48 53 -63 83 -31 66 -46
69 -111 19 -59 -45 -109 -70 -167 -85 -112 -28 -195 60 -196 209 -2 130 78
210 220 220 56 4 75 1 121 -21 85 -38 138 -126 138 -229 0 -50 16 -49 30 2 22
82 -24 217 -96 280 -76 67 -198 94 -294 67z"/>
<path d="M4978 4047 c-94 -35 -157 -90 -204 -177 -15 -28 -19 -56 -19 -135 0
-94 2 -104 35 -169 44 -88 157 -209 241 -259 97 -57 205 -88 330 -94 74 -4
108 -2 113 6 5 7 -2 11 -19 11 -50 0 -170 32 -240 65 -133 61 -260 179 -322
298 -40 75 -39 173 0 240 42 71 94 101 181 105 66 3 75 1 126 -30 40 -24 66
-50 95 -95 22 -34 48 -65 58 -68 11 -4 31 4 56 24 87 69 188 81 282 34 52 -27
56 -32 104 -130 45 -92 95 -164 95 -137 0 17 -66 207 -84 242 -66 127 -188
176 -345 137 l-71 -17 -59 55 c-84 77 -138 101 -236 104 -49 2 -94 -2 -117
-10z"/>
<path d="M7257 3745 c-41 -202 -118 -512 -132 -531 -11 -16 -15 -15 -53 6 -23
13 -45 21 -48 17 -12 -11 26 -45 58 -52 16 -4 32 -14 35 -22 5 -12 -39 -230
-64 -316 -6 -21 -18 -20 -92 8 -56 20 -76 6 -29 -23 18 -11 48 -23 66 -27 17
-3 32 -10 32 -13 1 -23 -65 -319 -72 -327 -6 -6 -27 0 -61 18 -60 31 -67 32
-67 13 0 -21 45 -53 85 -60 19 -4 35 -11 35 -16 0 -13 -72 -344 -76 -349 -2
-2 -22 6 -46 18 -26 13 -46 17 -52 11 -14 -14 11 -38 55 -52 22 -6 39 -16 39
-22 -1 -22 -68 -317 -74 -323 -3 -3 -90 15 -193 40 -380 93 -743 146 -1124
163 -82 4 -152 10 -154 14 -5 8 269 1067 277 1076 13 13 848 123 848 112 -1
-33 -172 -1014 -177 -1019 -14 -13 -533 57 -551 74 -13 14 -13 23 6 84 12 37
24 97 27 133 9 100 -10 53 -41 -100 -22 -111 -24 -134 -13 -144 15 -13 606
-113 615 -104 8 9 204 1122 199 1136 -7 19 -51 15 -508 -47 -362 -48 -431 -60
-447 -77 -14 -13 -63 -185 -170 -592 -84 -316 -149 -579 -147 -587 4 -9 43
-15 139 -19 462 -23 909 -89 1312 -192 93 -24 141 -33 148 -26 6 6 17 39 25
74 39 168 403 1984 413 2060 19 140 7 131 -23 -17z"/>
<path d="M4677 1507 c-23 -16 -103 -315 -88 -330 15 -15 39 -1 63 39 11 19 32
40 46 45 23 9 31 4 77 -41 50 -49 68 -59 79 -41 4 5 -17 79 -44 165 -50 153
-63 176 -102 176 -8 0 -22 -6 -31 -13z m57 -103 c10 -27 7 -69 -8 -89 -31 -42
-63 35 -36 86 13 23 36 25 44 3z"/>
<path d="M4927 1503 c-11 -10 -8 -185 4 -227 16 -59 58 -96 109 -96 52 0 84
21 103 69 21 51 29 144 20 206 -8 47 -10 50 -38 50 l-30 0 -5 -128 c-4 -99 -8
-130 -20 -137 -50 -32 -70 9 -70 140 0 69 -4 110 -12 118 -13 13 -50 16 -61 5z"/>
<path d="M5272 1502 c-9 -7 -12 -46 -10 -163 l3 -154 30 0 c29 0 30 2 35 55 6
68 27 77 55 23 32 -60 55 -83 81 -83 30 0 31 18 4 62 -26 42 -25 50 5 94 63
93 -4 174 -145 174 -25 0 -51 -4 -58 -8z m142 -68 c9 -8 16 -24 16 -34 0 -22
-26 -50 -46 -50 -32 0 -54 21 -54 50 0 45 52 66 84 34z"/>
<path d="M5682 1483 c-25 -21 -126 -278 -118 -298 6 -16 33 -20 52 -7 7 4 19
23 27 44 18 44 50 57 78 32 10 -9 19 -23 19 -31 0 -8 14 -28 31 -45 27 -27 32
-29 45 -16 13 13 11 32 -16 159 -23 111 -35 148 -51 162 -12 9 -27 17 -34 17
-7 0 -22 -8 -33 -17z m50 -143 c3 -33 1 -35 -27 -35 -25 0 -31 4 -33 27 -4 33
36 80 48 57 5 -8 10 -30 12 -49z"/>
<path d="M4293 1483 c-51 -4 -53 -5 -53 -34 0 -28 2 -29 44 -29 25 0 47 -4 50
-8 2 -4 8 -59 12 -122 4 -65 12 -118 18 -122 6 -4 24 -8 40 -8 28 0 28 0 22
53 -3 28 -8 86 -12 128 l-6 76 48 9 c43 8 49 12 52 37 l3 27 -83 -2 c-46 -1
-107 -3 -135 -5z"/>
<path d="M5932 1453 c-5 -10 -12 -56 -16 -103 -4 -47 -9 -108 -12 -137 -6 -49
-5 -53 20 -64 38 -17 56 2 56 60 0 62 13 81 33 50 8 -13 21 -44 28 -69 15 -55
26 -70 50 -70 31 0 46 40 63 174 15 117 15 131 1 145 -28 28 -49 2 -57 -69
-11 -93 -16 -102 -39 -58 -10 20 -23 58 -29 84 -6 27 -16 54 -22 61 -16 19
-66 16 -76 -4z"/>
<path d="M4003 1448 c-46 -10 -83 -47 -83 -82 0 -38 28 -64 102 -91 87 -33 92
-37 83 -64 -6 -19 -13 -20 -83 -18 -71 2 -77 0 -77 -18 0 -29 89 -50 147 -35
123 34 130 151 10 178 -55 13 -94 39 -90 60 3 14 15 17 63 17 57 0 60 1 63 26
3 23 -1 27 -35 32 -44 8 -45 8 -100 -5z"/>
<path d="M6254 1416 c-13 -33 0 -51 39 -54 21 -2 40 -9 43 -16 3 -8 -2 -53
-10 -102 -23 -127 -22 -137 14 -151 35 -13 32 -21 55 136 9 57 18 107 20 112
3 4 19 3 36 -3 25 -8 33 -7 49 7 21 19 26 40 11 50 -6 3 -47 10 -93 15 -46 5
-100 12 -121 15 -27 4 -39 1 -43 -9z"/>
<path d="M3668 1413 c-25 -2 -51 -10 -57 -16 -10 -13 24 -295 38 -309 8 -9
192 19 204 31 5 5 7 17 5 27 -3 17 -12 19 -75 16 -77 -4 -89 3 -79 43 5 20 13
24 54 27 45 3 47 4 50 36 l3 33 -49 -7 c-56 -7 -92 7 -92 35 0 20 26 31 78 31
44 0 72 16 72 40 0 21 -23 23 -152 13z"/>
<path d="M6622 1371 c-15 -9 -59 -269 -49 -293 4 -11 35 -21 94 -32 109 -20
119 -20 127 0 10 25 -10 41 -62 49 -63 9 -82 21 -82 51 0 31 20 39 69 26 47
-11 64 -3 59 29 -2 20 -10 25 -52 31 -65 9 -87 39 -43 59 15 7 40 7 73 2 59
-11 74 -8 74 18 0 22 -27 35 -105 50 -27 5 -59 12 -70 14 -11 2 -26 0 -33 -4z"/>
<path d="M3303 1347 c-17 -7 -35 -15 -38 -19 -8 -8 33 -254 47 -281 6 -12 18
-17 36 -15 26 3 27 5 27 63 0 53 2 60 20 63 15 2 25 -7 38 -33 16 -34 72 -78
92 -72 21 7 15 39 -14 76 -30 38 -31 40 -16 75 8 19 15 47 15 61 0 33 -24 81
-45 89 -27 10 -127 5 -162 -7z m127 -58 c26 -47 -25 -100 -69 -72 -20 13 -26
60 -10 79 18 22 66 18 79 -7z"/>
</g>
</svg>
